<?xml version="1.0" standalone="no"?>
<!DOCTYPE svg PUBLIC "-//W3C//DTD SVG 20010904//EN"
 "http://www.w3.org/TR/2001/REC-SVG-20010904/DTD/svg10.dtd">
<svg version="1.0" xmlns="http://www.w3.org/2000/svg"
 width="320.000000pt" height="320.000000pt" viewBox="0 0 320.000000 320.000000"
 preserveAspectRatio="xMidYMid meet">
<metadata>
Created by potrace 1.14, written by Peter Selinger 2001-2017
</metadata>
<g transform="translate(0.000000,320.000000) scale(0.100000,-0.100000)"
fill="#000000" stroke="none">
<path d="M1365 3025 c-621 -110 -1089 -584 -1191 -1205 -21 -128 -14 -398 15
-521 88 -384 317 -710 647 -921 126 -81 309 -154 477 -190 136 -29 417 -31
547 -5 304 63 543 191 755 402 213 213 344 460 402 760 26 136 24 407 -5 542
-62 289 -189 521 -401 734 -203 202 -425 324 -710 391 -115 26 -419 34 -536
13z m255 -968 c8 -1 24 -8 35 -14 11 -6 39 -14 63 -18 46 -7 138 -37 149 -48
3 -4 19 -7 34 -7 15 0 30 -4 34 -9 3 -5 19 -12 35 -16 17 -4 30 -13 30 -20 0
-22 17 -26 35 -9 9 9 19 13 23 9 4 -4 1 -10 -5 -12 -20 -7 -16 -17 18 -42 24
-18 33 -20 45 -11 11 10 14 9 14 -3 0 -8 9 -17 21 -20 12 -3 18 -10 15 -16 -8
-12 21 -60 47 -79 14 -11 15 -17 6 -28 -6 -7 -9 -20 -6 -28 3 -8 3 -17 0 -20
-10 -10 -12 -56 -3 -56 4 0 6 -8 3 -19 -3 -10 1 -22 7 -26 8 -5 -1 -19 -26
-43 -31 -29 -40 -33 -55 -23 -31 19 -64 13 -79 -14 -7 -14 -19 -25 -27 -25 -7
0 -13 -6 -13 -12 0 -21 -50 -38 -111 -38 -32 0 -61 -4 -64 -10 -3 -5 -17 -10
-31 -10 -13 0 -24 -5 -24 -11 0 -6 -13 -1 -29 10 -33 23 -52 26 -68 10 -11
-11 -23 -10 -188 7 -33 3 -64 10 -70 15 -5 5 -20 9 -33 9 -12 0 -69 22 -125
48 -56 27 -127 60 -157 74 -51 24 -100 66 -100 87 0 5 -7 14 -15 21 -9 7 -14
27 -13 51 1 34 4 39 25 39 12 0 23 4 23 9 0 5 20 22 45 38 24 15 44 33 45 40
0 7 7 10 15 7 18 -7 95 41 95 59 0 12 82 67 101 67 5 0 18 5 29 10 11 6 29 15
40 20 11 6 27 10 35 10 8 0 15 7 15 15 0 8 8 15 18 15 10 0 22 4 28 9 16 16
64 19 114 8z"/>
<path d="M1515 1971 c-6 -6 -29 -13 -50 -15 -48 -5 -115 -28 -115 -38 0 -5 -9
-8 -19 -8 -11 0 -33 -11 -49 -25 -17 -14 -34 -25 -39 -25 -11 0 -33 -43 -33
-63 0 -7 -20 -33 -45 -57 -37 -36 -45 -51 -45 -80 0 -37 29 -80 65 -95 11 -4
22 -9 25 -10 3 -2 15 -6 28 -10 12 -4 22 -11 22 -16 0 -5 9 -9 20 -9 11 0 20
-3 20 -8 0 -12 108 -34 130 -27 12 4 20 2 20 -4 0 -6 8 -11 18 -11 10 0 23 -5
29 -11 5 -5 38 -10 72 -10 49 -1 66 3 77 18 11 13 17 14 20 6 8 -19 24 -16 25
5 0 10 3 12 6 5 10 -26 172 -4 208 28 5 5 16 9 26 9 9 0 28 11 42 24 15 14 34
26 44 28 11 2 18 13 19 33 0 17 4 38 8 47 4 9 5 21 2 27 -4 5 -2 12 4 16 5 3
10 20 10 38 0 24 3 28 12 19 20 -20 29 -13 26 21 -2 25 -10 35 -38 49 -19 9
-41 22 -49 29 -8 7 -21 13 -30 14 -19 3 -43 11 -89 31 -18 8 -39 14 -47 14 -8
0 -15 5 -15 10 0 6 -10 10 -23 10 -13 0 -28 5 -33 10 -9 9 -81 22 -204 36 -26
3 -49 1 -55 -5z m110 -77 c33 0 71 -6 85 -11 l25 -10 -23 -7 c-13 -4 -29 -3
-36 3 -18 15 -89 -4 -168 -46 -15 -8 -36 -13 -45 -11 -16 3 -18 -6 -18 -77 1
-101 15 -136 67 -165 47 -26 170 -41 182 -21 14 22 24 11 13 -13 -11 -23 -18
-25 -95 -28 -58 -2 -87 1 -94 10 -6 6 -17 12 -24 12 -8 0 -14 4 -14 8 0 5 -11
14 -25 20 -14 7 -25 20 -25 31 0 11 -4 23 -10 26 -5 3 -10 46 -10 96 0 53 4
89 10 89 6 0 10 6 10 14 0 8 20 29 45 47 25 18 45 36 45 41 0 5 10 6 23 2 12
-5 49 -9 82 -10z m161 -72 c-9 -9 -37 8 -31 18 5 8 11 7 21 -1 8 -6 12 -14 10
-17z m-174 -28 c48 -8 88 -47 88 -86 0 -62 -100 -124 -138 -86 -7 7 -12 8 -12
3 0 -4 -9 0 -20 10 -11 10 -18 21 -15 24 2 4 0 23 -4 43 -6 26 -4 45 7 67 15
33 27 36 94 25z"/>
<path d="M1163 1805 c-3 -9 -3 -18 0 -22 10 -10 37 6 37 22 0 20 -29 20 -37 0z"/>
<path d="M1077 1743 c-4 -3 -7 -19 -7 -34 0 -15 -6 -29 -12 -32 -7 -2 -10 -8
-6 -12 9 -10 38 19 38 39 0 8 5 18 10 21 6 3 10 10 10 16 0 10 -23 12 -33 2z"/>
<path d="M2110 1720 c0 -5 5 -10 11 -10 5 0 7 5 4 10 -3 6 -8 10 -11 10 -2 0
-4 -4 -4 -10z"/>
<path d="M2071 1692 c-10 -18 -9 -23 4 -28 23 -9 30 2 18 28 l-10 23 -12 -23z"/>
</g>
</svg>
