<?xml version="1.0" standalone="no"?>
<!DOCTYPE svg PUBLIC "-//W3C//DTD SVG 20010904//EN"
 "http://www.w3.org/TR/2001/REC-SVG-20010904/DTD/svg10.dtd">
<svg version="1.0" xmlns="http://www.w3.org/2000/svg"
 width="259.000000pt" height="259.000000pt" viewBox="0 0 259.000000 259.000000"
 preserveAspectRatio="xMidYMid meet">
<metadata>
Created by potrace 1.14, written by Peter Selinger 2001-2017
</metadata>
<g transform="translate(0.000000,259.000000) scale(0.100000,-0.100000)"
fill="#000000" stroke="none">
<path d="M1345 2510 c1 -8 7 -14 12 -13 5 1 10 -4 10 -12 0 -7 -6 -11 -12 -8
-12 4 -12 -13 -1 -65 3 -14 1 -20 -6 -16 -6 4 -9 1 -6 -7 3 -8 12 -13 19 -11
10 2 10 -1 -2 -10 -15 -13 -23 -52 -8 -43 4 3 3 -11 -1 -30 -6 -28 -4 -37 9
-45 14 -8 14 -9 0 -10 -13 0 -15 -8 -12 -35 2 -23 -1 -35 -9 -35 -6 0 -3 -7 8
-15 19 -14 19 -14 -1 -15 -18 0 -18 -1 4 -17 23 -15 23 -17 6 -30 -11 -7 -13
-13 -7 -13 12 0 11 -34 -1 -46 -4 -4 -2 -13 4 -21 7 -8 7 -13 2 -13 -10 0 -10
-20 1 -68 3 -14 1 -20 -6 -16 -6 4 -9 1 -6 -7 3 -8 12 -13 19 -11 9 1 8 -3 -3
-11 -19 -15 -25 -33 -9 -22 5 3 13 0 17 -6 4 -7 3 -9 -4 -5 -6 3 -13 2 -17 -4
-3 -5 -2 -10 4 -10 6 0 8 -7 5 -15 -3 -8 1 -22 10 -30 9 -9 16 -12 16 -6 0 6
10 15 21 22 15 8 19 8 15 0 -4 -6 -3 -11 3 -11 5 0 11 5 13 10 2 6 13 12 25
13 18 1 20 4 10 16 -10 12 -9 13 10 2 19 -9 22 -9 17 3 -4 11 1 14 20 12 14
-2 26 1 26 5 0 5 5 9 11 9 5 0 7 -4 4 -10 -10 -17 7 -11 22 8 8 10 11 11 7 2
-7 -13 -5 -13 9 -1 11 9 17 10 17 2 0 -6 5 -11 11 -11 5 0 8 4 5 8 -3 5 1 9 9
9 8 0 12 -4 9 -9 -3 -4 6 -8 19 -8 14 0 27 -7 31 -15 3 -8 13 -15 21 -15 10 0
13 5 9 12 -4 7 -3 8 5 4 6 -4 10 -10 8 -14 -5 -9 30 -42 36 -35 3 3 3 -4 0
-16 -4 -16 -1 -21 13 -21 17 0 17 -1 -2 -16 -10 -8 -14 -13 -9 -11 6 3 15 0
20 -7 14 -16 18 -39 5 -31 -5 3 -10 2 -10 -4 0 -5 5 -11 11 -13 6 -2 12 -25
14 -51 1 -26 -1 -45 -5 -42 -4 3 -11 -2 -14 -11 -3 -8 -2 -13 2 -10 4 2 8 -4
8 -14 0 -15 -3 -17 -15 -7 -12 10 -13 9 -4 -7 14 -25 -3 -76 -25 -76 -8 0 -13
-2 -10 -5 3 -3 -4 -17 -16 -30 -14 -16 -23 -20 -28 -12 -5 8 -8 5 -8 -8 0 -17
-2 -17 -10 -5 -5 8 -10 12 -11 8 -1 -5 -3 -12 -4 -18 -1 -5 -3 -13 -4 -17 -1
-5 -8 1 -16 11 -15 20 -15 20 -15 0 0 -16 -2 -17 -10 -4 -8 12 -10 12 -10 1 0
-11 -5 -10 -20 4 -15 14 -19 15 -15 4 4 -10 -1 -15 -15 -15 -11 0 -20 6 -20
13 0 7 -5 13 -11 13 -5 0 -7 -6 -3 -12 4 -7 -3 -4 -15 6 -23 21 -55 31 -45 15
3 -5 0 -9 -5 -9 -6 0 -11 5 -11 11 0 6 -7 8 -16 5 -14 -5 -15 -4 -5 8 9 11 9
16 0 22 -8 4 -9 3 -5 -4 10 -17 0 -15 -31 6 -15 9 -24 11 -20 5 5 -7 4 -13 -2
-13 -6 0 -11 5 -11 10 0 6 -4 10 -10 10 -5 0 -7 -7 -3 -15 3 -10 0 -15 -8 -13
-8 2 -12 -3 -10 -12 2 -8 4 -21 4 -27 0 -7 4 -13 9 -13 11 0 10 7 -2 31 -6 10
-8 19 -6 19 3 0 11 -10 17 -22 10 -18 8 -24 -7 -35 -10 -7 -13 -13 -7 -13 8 0
9 -9 3 -31 -7 -25 -6 -30 5 -25 8 3 15 3 15 0 0 -2 -10 -9 -22 -14 -18 -7 -19
-9 -5 -9 19 -1 23 -16 6 -27 -8 -4 -7 -9 2 -15 12 -7 12 -9 0 -9 -11 0 -11 -3
-1 -15 8 -9 8 -15 2 -15 -7 0 -8 -10 -2 -30 5 -16 5 -30 1 -30 -3 0 -7 -9 -7
-20 0 -13 5 -19 13 -16 7 3 13 1 13 -5 0 -6 7 -9 15 -5 8 3 15 1 15 -4 0 -12
22 -9 33 5 6 7 10 6 13 -2 3 -7 12 -9 20 -6 7 3 11 10 7 17 -4 6 1 5 10 -3 9
-7 24 -11 32 -7 8 3 15 1 15 -4 0 -6 5 -10 11 -10 5 0 7 6 3 13 -5 8 -2 8 9
-2 13 -10 17 -10 17 -1 0 10 3 10 15 0 9 -7 18 -10 22 -6 3 3 0 6 -7 6 -7 0
-10 3 -7 6 4 4 13 1 22 -6 9 -8 15 -8 15 -2 0 17 40 9 41 -8 0 -13 1 -13 7 0
4 8 13 16 21 18 12 3 12 1 0 -14 -13 -16 -12 -16 9 -5 15 8 22 8 22 1 0 -6 5
-8 10 -5 5 3 10 -1 10 -10 0 -9 5 -13 10 -10 5 3 10 -1 10 -10 0 -9 4 -14 9
-10 6 3 10 -3 9 -12 0 -10 3 -28 6 -41 3 -15 0 -25 -10 -29 -13 -5 -13 -7 -2
-14 9 -6 9 -9 1 -9 -6 0 -10 -9 -8 -19 3 -14 -1 -18 -11 -14 -9 3 -14 -2 -14
-15 0 -32 -21 -72 -34 -65 -6 4 -3 -3 7 -14 12 -14 15 -23 7 -28 -5 -3 -8 -10
-5 -15 3 -5 0 -12 -6 -16 -8 -5 -9 -3 -4 6 5 9 4 11 -3 6 -8 -5 -9 -13 -2 -25
5 -10 6 -22 2 -26 -4 -5 -1 -5 6 -1 7 4 9 12 6 18 -4 7 -2 8 4 4 8 -4 8 -15 2
-31 -7 -19 -6 -23 5 -18 8 3 15 0 15 -7 0 -6 4 -9 9 -6 5 3 11 -4 14 -16 5
-17 9 -19 20 -10 11 10 17 9 27 -3 10 -12 16 -13 26 -4 11 9 14 8 14 -2 0 -12
2 -12 9 0 6 9 11 10 15 2 5 -8 13 -8 27 -1 11 6 25 8 31 4 8 -5 9 -2 4 11 -6
16 -4 16 10 4 20 -16 22 -15 49 21 11 15 27 25 35 22 9 -2 7 2 -5 12 -13 10
-15 15 -6 16 7 0 11 6 8 15 -4 8 -2 17 3 20 10 6 7 31 -5 42 -4 4 -5 2 -1 -4
10 -19 1 -16 -15 4 -8 9 -9 14 -3 10 7 -4 11 5 11 23 0 23 -3 27 -13 19 -10
-8 -12 -6 -9 9 2 11 -5 31 -16 43 -21 24 -24 34 -9 24 6 -3 10 -1 10 4 0 6 -8
11 -17 11 -15 0 -16 2 -3 10 12 8 12 10 -5 11 l-20 0 20 9 20 9 -20 0 c-15 1
-17 3 -6 10 11 7 11 9 0 14 -10 4 -10 6 -1 6 6 1 12 7 12 15 0 8 5 18 12 22 7
5 8 3 3 -6 -5 -9 -4 -11 4 -6 6 4 9 11 6 15 -8 14 35 45 65 46 16 1 27 -1 25
-4 -2 -4 14 -6 35 -6 21 0 36 3 34 7 -3 5 0 8 5 8 6 0 11 -4 11 -9 0 -5 7 -11
14 -14 11 -4 13 -1 9 11 -3 9 -3 14 2 10 4 -4 14 -3 22 4 8 6 13 7 12 2 -1 -5
-1 -16 0 -24 1 -13 3 -13 10 -1 11 17 71 25 71 10 0 -6 5 -7 10 -4 6 3 10 43
10 87 0 63 -4 86 -17 100 -10 11 -13 19 -8 18 20 -4 30 1 17 9 -7 4 -14 24
-15 43 -1 20 -4 35 -7 33 -3 -2 -12 4 -20 13 -13 14 -12 15 3 9 21 -8 22 -3 1
18 -9 9 -16 27 -16 40 0 14 -5 22 -11 18 -6 -3 -7 -1 -3 6 4 6 2 19 -6 28 -8
10 -8 14 -1 10 6 -4 15 -3 18 3 4 6 3 10 -2 9 -19 -3 -33 2 -33 12 0 5 6 7 13
3 12 -8 -3 14 -35 50 -14 16 -15 22 -5 35 10 12 9 14 -5 8 -10 -3 -20 -1 -24
5 -4 7 -3 8 4 4 7 -4 12 -2 12 3 0 6 -4 11 -10 11 -5 0 -9 3 -9 8 4 21 -3 32
-17 32 -11 0 -15 6 -11 20 3 13 0 20 -8 20 -8 0 -17 5 -21 12 -4 7 -3 8 4 4 7
-4 12 -1 12 8 0 9 -5 15 -12 13 -7 -1 -12 5 -13 13 0 9 -8 14 -20 12 -17 -3
-17 -2 -4 14 12 16 12 17 -2 12 -13 -5 -16 -2 -12 13 4 14 0 19 -13 19 -16 0
-17 2 -4 10 13 9 13 10 0 11 -8 1 -18 1 -21 1 -4 -1 -5 9 -2 21 4 18 3 19 -6
7 -8 -11 -11 -12 -11 -2 0 19 -26 43 -36 34 -5 -4 -2 2 6 13 8 11 10 17 6 13
-12 -10 -48 33 -41 49 3 8 0 11 -6 7 -13 -7 -69 44 -69 63 0 8 -5 11 -12 7 -7
-5 -9 -2 -5 8 4 11 -1 18 -15 21 -11 3 -18 9 -15 14 3 4 -7 17 -22 27 l-26 20
20 -25 20 -24 -22 19 c-13 11 -23 25 -23 32 0 7 -9 16 -20 19 -11 3 -20 11
-20 16 0 6 -6 7 -12 3 -8 -5 -7 0 2 11 10 12 10 16 2 11 -16 -9 -45 12 -38 29
2 6 -6 17 -17 25 -21 12 -21 12 -8 -6 7 -10 2 -6 -13 9 -16 17 -31 25 -39 21
-8 -5 -7 -2 2 9 12 15 12 17 -4 11 -13 -5 -16 -4 -11 4 4 7 1 12 -6 12 -8 0
-20 9 -28 20 -8 11 -20 20 -28 20 -7 0 -10 5 -7 10 3 6 -1 10 -10 10 -10 0
-13 5 -9 13 6 8 3 8 -9 -1 -14 -12 -16 -11 -12 7 4 23 -5 27 -23 9 -9 -9 -11
-7 -7 10 2 14 -1 19 -9 16 -15 -6 -68 34 -61 46 3 4 -6 7 -19 6 -15 0 -23 -6
-21 -16z m159 -1109 c3 -5 -1 -11 -9 -14 -9 -4 -12 -1 -8 9 6 16 10 17 17 5z
m339 -756 c-3 -9 -8 -14 -10 -11 -3 3 -2 9 2 15 9 16 15 13 8 -4z"/>
<path d="M1400 2511 c0 -6 4 -13 10 -16 6 -3 7 1 4 9 -7 18 -14 21 -14 7z"/>
<path d="M1143 2108 c5 -14 1 -18 -18 -18 -14 0 -25 -6 -25 -12 0 -10 -2 -10
-8 -1 -9 14 -50 9 -66 -8 -8 -9 -7 -10 3 -4 10 6 12 4 6 -5 -6 -10 -11 -9 -21
4 -11 16 -13 16 -19 -5 -4 -12 -10 -17 -14 -12 -4 6 -15 5 -28 -2 -13 -7 -20
-15 -15 -20 4 -4 -3 -2 -15 4 -19 10 -23 9 -23 -4 0 -10 -5 -13 -12 -9 -6 4
-17 -1 -24 -11 -8 -10 -20 -15 -29 -11 -9 3 -13 2 -10 -4 3 -6 -4 -10 -15 -10
-16 0 -20 -4 -16 -16 5 -14 4 -15 -8 -5 -11 9 -15 8 -20 -4 -3 -8 -10 -15 -16
-15 -6 0 -8 6 -4 13 4 7 3 9 -2 4 -5 -5 -9 -14 -9 -20 0 -7 -8 -11 -18 -11 -9
1 -14 -2 -12 -7 3 -4 -4 -13 -15 -19 -11 -6 -18 -15 -15 -20 4 -6 -1 -7 -11
-3 -13 5 -15 3 -9 -7 5 -8 4 -11 -3 -6 -6 3 -22 -5 -37 -18 -18 -17 -22 -26
-13 -30 7 -3 3 -4 -10 -2 -12 2 -20 0 -16 -5 3 -5 -2 -9 -11 -9 -9 0 -13 -4
-10 -10 3 -5 1 -10 -5 -10 -6 0 -8 -5 -4 -11 4 -8 -1 -9 -17 -5 -13 3 -18 3
-11 0 6 -3 12 -10 12 -15 0 -6 -4 -7 -10 -4 -9 6 -14 -8 -11 -28 0 -4 -2 -6
-6 -6 -5 1 -15 1 -23 0 -13 -1 -13 -2 0 -11 10 -6 11 -10 3 -10 -7 0 -13 -8
-13 -17 0 -15 -2 -16 -10 -3 -8 12 -10 10 -10 -8 0 -13 -4 -20 -10 -17 -6 4
-10 3 -9 -2 3 -18 -1 -34 -9 -29 -4 2 -9 -5 -9 -16 -1 -12 -7 -26 -14 -32 -9
-8 -10 -7 -4 3 6 10 4 12 -4 7 -9 -6 -9 -11 0 -22 9 -11 8 -15 -5 -20 -9 -3
-16 -13 -16 -21 0 -9 -10 -24 -22 -34 -13 -12 -16 -19 -8 -19 9 0 7 -5 -6 -15
-19 -15 -19 -15 1 -9 17 5 16 2 -5 -15 -14 -11 -21 -21 -16 -21 5 0 1 -10 -10
-22 -10 -12 -13 -18 -6 -14 22 13 13 -32 -10 -50 -18 -13 -19 -15 -4 -10 14 5
17 3 11 -11 -4 -10 -8 -28 -10 -41 -1 -12 -5 -25 -9 -29 -3 -3 0 -13 7 -21 8
-10 8 -13 1 -9 -7 4 -14 0 -18 -8 -3 -8 -1 -17 3 -20 5 -3 5 -21 1 -41 -6 -26
-5 -33 2 -26 8 8 17 8 31 1 14 -8 17 -8 13 0 -4 6 5 9 25 6 18 -2 36 -10 40
-17 7 -10 9 -9 9 5 0 9 5 17 10 17 6 0 10 -5 10 -12 0 -6 10 -3 22 8 12 10 18
14 15 8 -4 -7 2 -14 13 -17 12 -3 18 -1 14 5 -4 6 6 2 20 -7 21 -14 26 -15 24
-4 -2 8 3 13 11 11 22 -4 43 18 31 33 -8 9 -7 15 2 18 11 4 10 6 0 6 -7 1 -10
6 -6 13 4 6 3 8 -3 5 -6 -4 -17 1 -24 10 -8 10 -9 14 -2 10 6 -4 15 -3 18 3 4
6 3 10 -2 9 -23 -4 -33 3 -33 23 0 12 -8 31 -18 42 -12 15 -13 17 -1 9 13 -11
15 -9 14 7 -1 11 -5 23 -10 27 -4 5 -5 1 0 -7 5 -9 4 -12 -1 -7 -12 11 -11 40
1 49 6 4 2 8 -7 8 -10 0 -18 5 -18 10 0 6 5 10 11 10 8 0 7 5 -1 16 -11 13
-10 16 9 21 20 5 20 6 4 20 -10 8 -12 12 -5 8 6 -3 12 -1 12 5 0 6 4 9 9 6 4
-3 8 4 7 17 -1 13 4 21 12 20 6 -2 12 4 12 12 0 16 39 36 53 28 4 -2 7 1 7 7
0 7 7 7 23 -1 20 -11 21 -11 8 5 -12 15 -12 17 0 14 8 -2 17 -7 21 -13 4 -5 8
-1 8 10 0 11 4 16 8 10 9 -13 92 -14 92 -1 0 5 7 1 15 -10 12 -14 14 -15 9 -2
-4 13 -1 15 15 11 11 -3 19 -9 16 -12 -2 -4 2 -8 10 -8 8 0 12 3 10 7 -2 4 2
7 10 7 8 0 12 -4 9 -9 -3 -4 0 -8 6 -8 6 0 9 -4 6 -9 -3 -4 5 -6 18 -4 13 3
27 0 30 -6 5 -7 0 -9 -11 -5 -15 4 -14 3 2 -7 31 -20 45 -36 37 -44 -4 -5 -2
-5 4 -2 7 4 18 -1 25 -10 12 -15 12 -16 -6 -9 -18 7 -18 6 2 -16 15 -16 19
-28 13 -38 -5 -9 -5 -19 2 -27 8 -10 6 -18 -6 -32 -11 -12 -14 -21 -7 -26 7
-4 4 -14 -9 -27 -16 -17 -17 -24 -7 -37 8 -9 8 -12 1 -8 -7 4 -15 0 -18 -9 -4
-10 -2 -13 6 -8 7 4 8 3 4 -4 -4 -7 -15 -12 -24 -12 -10 0 -13 -3 -7 -8 15
-11 15 -41 0 -36 -7 3 -16 0 -21 -7 -4 -8 -3 -10 5 -5 8 5 10 0 7 -17 -3 -16
1 -24 10 -24 11 0 11 4 2 16 -7 9 1 5 16 -9 16 -14 26 -19 21 -11 -5 9 -3 12
6 9 8 -3 13 -12 11 -19 -1 -9 3 -7 12 4 13 16 15 16 30 2 14 -15 16 -15 16 -1
0 9 5 16 10 16 6 0 10 -5 10 -12 0 -6 10 -3 22 8 12 10 18 13 13 5 -6 -11 -3
-13 13 -9 12 4 26 0 33 -8 9 -11 15 -11 25 -3 8 6 23 9 34 6 14 -4 20 0 20 11
1 15 2 15 11 0 5 -10 15 -18 20 -18 6 0 8 4 4 9 -3 5 2 17 11 25 11 12 12 16
2 16 -10 0 -9 3 2 10 13 8 13 10 1 10 -12 0 -12 3 -3 12 13 13 16 32 4 24 -4
-2 -8 8 -7 24 0 15 3 26 7 23 5 -2 8 1 8 6 0 6 -6 11 -12 11 -9 0 -8 4 2 10
13 8 13 10 1 10 -12 0 -12 3 -3 12 13 13 16 32 4 24 -4 -2 -8 8 -7 24 0 15 3
26 7 23 5 -2 8 1 8 6 0 6 -6 11 -12 11 -9 0 -8 4 2 10 12 8 12 10 1 10 -11 0
-11 3 -1 15 10 12 10 15 -1 15 -9 1 -8 5 5 15 11 8 14 15 8 15 -7 0 -12 5 -12
12 0 6 3 8 7 5 9 -10 43 23 43 41 0 9 3 12 7 9 3 -4 12 -2 20 4 10 9 13 8 13
0 0 -7 5 -9 10 -6 6 4 7 12 3 18 -5 8 -2 8 9 0 8 -7 18 -10 21 -6 4 3 10 -2
14 -12 6 -18 7 -18 14 1 7 18 8 18 8 0 1 -12 6 -16 16 -13 8 4 17 2 20 -4 4
-5 11 -7 16 -4 5 3 6 -1 3 -9 -4 -11 1 -14 20 -12 15 2 27 -3 31 -12 4 -12 8
-12 22 -1 12 10 14 10 9 2 -4 -8 -2 -13 8 -13 8 0 18 4 21 10 4 6 14 5 27 -3
16 -9 22 -9 25 1 3 6 8 11 11 9 4 -2 18 8 32 21 14 14 20 22 14 19 -6 -3 -11
0 -11 7 0 8 6 12 12 10 8 -3 10 7 9 31 -2 19 1 35 6 35 6 0 10 5 10 11 0 5 -4
8 -8 5 -4 -2 -8 4 -8 14 0 10 4 16 8 14 4 -3 8 0 8 5 0 6 -4 11 -10 11 -5 0
-10 5 -10 11 0 5 6 7 13 4 6 -4 2 2 -11 14 -13 11 -18 22 -12 26 5 3 10 1 10
-6 0 -7 3 -9 6 -6 4 4 -2 19 -12 34 -10 15 -18 31 -17 34 1 4 -7 4 -19 1 -14
-3 -19 -1 -14 6 5 8 1 10 -10 5 -10 -4 -15 -2 -11 3 3 6 -5 10 -18 10 -13 0
-21 -4 -19 -8 3 -4 0 -8 -5 -8 -6 0 -11 6 -11 13 0 9 -3 8 -9 -2 -5 -8 -14
-10 -21 -6 -8 5 -11 4 -7 -2 8 -12 -14 -23 -44 -23 -11 0 -17 -4 -14 -10 3 -5
-1 -10 -10 -10 -10 0 -13 5 -9 12 5 7 3 8 -5 4 -7 -5 -10 -15 -6 -25 5 -13 4
-14 -7 -3 -10 10 -15 8 -26 -10 l-13 -23 7 25 c6 24 6 24 -10 5 -8 -11 -16
-15 -16 -10 0 6 -5 3 -10 -5 -8 -13 -10 -12 -10 3 0 16 -2 16 -25 1 -23 -15
-25 -15 -19 0 3 9 11 13 18 9 6 -3 7 -2 3 2 -10 12 -38 15 -31 4 3 -5 1 -9 -4
-9 -11 0 -26 30 -23 44 1 5 -5 6 -13 3 -10 -4 -13 -1 -10 7 3 8 1 17 -5 21
-14 8 -14 25 0 25 5 0 7 -5 3 -12 -4 -7 -3 -8 4 -4 11 7 6 36 -7 36 -4 0 -7 9
-8 20 -1 11 3 20 9 20 6 0 6 6 -2 15 -10 12 -10 18 1 32 8 9 9 14 4 11 -6 -4
-11 2 -11 12 0 10 4 16 8 14 4 -3 8 0 8 5 0 6 -6 11 -12 11 -9 0 -8 4 2 10 12
8 12 10 1 10 -11 0 -11 3 -1 15 7 8 9 15 4 15 -14 0 -14 54 -1 63 8 6 6 7 -4
4 -9 -3 -22 0 -29 6 -10 9 -11 9 -6 -3 4 -8 0 -6 -10 5 -14 17 -16 17 -11 3 7
-21 -4 -23 -21 -6 -9 9 -12 9 -12 -2 -1 -11 -5 -9 -17 5 -13 16 -15 17 -10 3z
m548 -365 c13 -17 13 -17 -6 -3 -11 8 -22 16 -24 17 -2 2 0 3 6 3 6 0 17 -8
24 -17z m-391 -237 c0 -3 -4 -8 -10 -11 -5 -3 -10 -1 -10 4 0 6 5 11 10 11 6
0 10 -2 10 -4z m-740 -380 c0 -3 -4 -8 -10 -11 -5 -3 -10 -1 -10 4 0 6 5 11
10 11 6 0 10 -2 10 -4z m587 -28 c-3 -8 -6 -5 -6 6 -1 11 2 17 5 13 3 -3 4
-12 1 -19z"/>
<path d="M1260 2071 c0 -6 4 -13 10 -16 6 -3 7 1 4 9 -7 18 -14 21 -14 7z"/>
<path d="M1900 2055 c13 -14 26 -25 28 -25 3 0 -5 11 -18 25 -13 14 -26 25
-28 25 -3 0 5 -11 18 -25z"/>
<path d="M1335 2061 c-3 -5 -2 -12 3 -15 5 -3 9 1 9 9 0 17 -3 19 -12 6z"/>
<path d="M2205 1610 c3 -5 8 -10 11 -10 2 0 4 5 4 10 0 6 -5 10 -11 10 -5 0
-7 -4 -4 -10z"/>
<path d="M550 1509 c0 -5 5 -7 10 -4 6 3 10 8 10 11 0 2 -4 4 -10 4 -5 0 -10
-5 -10 -11z"/>
<path d="M701 1488 c-1 -9 -6 -20 -13 -24 -6 -4 -8 -3 -5 3 4 6 0 13 -8 17 -8
3 -15 1 -15 -5 0 -6 -4 -8 -9 -4 -5 3 -17 -5 -27 -17 -10 -14 -14 -17 -11 -6
4 12 2 15 -8 11 -8 -3 -12 -9 -9 -14 3 -5 1 -9 -3 -9 -5 0 -14 -9 -21 -21 -8
-12 -9 -18 -3 -14 6 3 11 -1 11 -10 0 -9 -5 -13 -11 -9 -7 4 -7 -1 1 -16 11
-20 10 -22 -4 -17 -10 4 -15 3 -11 -3 3 -6 13 -10 21 -10 8 0 12 -5 9 -10 -4
-6 -12 -8 -18 -4 -7 3 -4 -1 6 -9 17 -14 24 -33 9 -23 -5 3 -9 -1 -9 -8 0 -8
7 -12 15 -8 10 3 13 1 8 -6 -4 -7 -2 -12 6 -12 9 0 9 -3 -2 -10 -13 -8 -13
-10 1 -10 9 0 20 -7 23 -16 10 -26 7 -29 -10 -8 -8 10 -12 12 -8 4 4 -8 16
-25 28 -38 17 -20 18 -24 6 -32 -10 -7 -11 -10 -2 -10 6 0 12 -7 12 -15 0 -8
-6 -15 -12 -15 -9 0 -8 -4 2 -10 13 -8 13 -10 -2 -10 -11 0 -15 -5 -12 -15 4
-9 0 -15 -9 -15 -8 0 -21 -10 -29 -22 -11 -17 -16 -19 -23 -8 -6 9 -4 11 5 5
9 -6 11 -4 5 5 -6 10 -12 8 -27 -9 -11 -15 -18 -18 -19 -10 0 8 -4 5 -9 -6 -8
-18 -9 -18 -10 5 -2 18 -4 20 -7 7 -4 -15 -7 -16 -21 -5 -9 7 -13 8 -10 3 5
-7 -11 -9 -48 -5 -30 3 -54 2 -54 -2 0 -4 -5 -8 -11 -8 -5 0 -8 3 -6 8 3 4
-10 7 -29 7 -23 0 -34 -5 -34 -15 0 -13 -1 -13 -10 0 -7 12 -10 8 -11 -15 0
-16 -2 -40 -3 -52 -2 -15 2 -19 12 -15 11 4 13 2 6 -9 -14 -24 -13 -39 4 -39
13 0 12 -3 -4 -16 -10 -8 -13 -12 -5 -8 11 5 13 2 8 -15 -3 -14 0 -24 9 -28 8
-3 11 -9 8 -14 -3 -5 -10 -6 -16 -3 -7 4 -8 2 -4 -5 4 -6 12 -9 17 -6 5 4 9
-6 9 -20 0 -18 4 -24 13 -19 9 6 9 4 -1 -8 -10 -13 -10 -18 -1 -24 8 -5 9 -3
4 6 -5 9 -4 11 3 6 9 -5 9 -13 2 -27 -8 -15 -8 -19 2 -17 7 2 12 -3 10 -10 -1
-7 5 -15 14 -19 13 -5 13 -7 2 -14 -11 -7 -10 -11 2 -18 8 -5 17 -8 21 -5 9 5
6 -17 -5 -35 -7 -11 -5 -13 8 -8 10 4 15 3 11 -3 -3 -6 0 -10 7 -10 9 0 9 -3
-2 -10 -12 -8 -12 -10 5 -10 17 0 17 -2 5 -10 -13 -8 -13 -10 2 -10 9 0 20 -5
24 -12 4 -7 3 -8 -4 -4 -8 5 -10 2 -6 -8 3 -9 11 -13 17 -9 7 4 8 0 3 -12 -6
-16 -4 -16 10 -4 16 13 16 12 5 -10 -8 -15 -9 -21 -2 -17 6 4 11 2 11 -4 0 -7
6 -10 14 -7 10 4 12 0 9 -14 -4 -13 0 -19 10 -19 9 0 19 -5 23 -12 5 -7 3 -8
-6 -3 -9 5 -11 4 -6 -3 4 -7 14 -12 22 -12 8 0 14 -5 14 -11 0 -5 -5 -7 -12
-3 -7 4 -8 3 -4 -4 4 -7 14 -12 22 -12 8 0 14 -6 14 -14 0 -7 8 -20 18 -27 16
-13 16 -13 2 6 -14 19 -14 19 3 6 10 -8 16 -20 13 -28 -4 -10 -1 -11 13 -3 15
7 18 6 17 -6 -1 -16 3 -20 58 -45 15 -8 32 -23 37 -34 5 -13 8 -15 9 -5 0 13
2 13 9 0 6 -8 7 -18 4 -23 -3 -5 4 -6 16 -2 11 3 21 2 21 -3 0 -6 7 -13 16
-16 9 -3 12 -2 8 5 -3 6 3 5 15 -2 11 -8 22 -20 25 -29 2 -10 4 -8 5 5 1 17 4
16 22 -10 13 -19 19 -23 15 -10 -6 19 -5 19 8 1 8 -10 19 -15 25 -11 6 3 11 1
11 -4 0 -6 9 -11 21 -11 13 0 18 -4 13 -12 -5 -8 0 -7 11 2 11 9 16 10 11 3
-8 -14 2 -17 42 -13 12 1 22 -4 22 -10 0 -6 5 -8 10 -5 6 4 17 1 25 -5 12 -10
15 -9 15 6 0 15 2 16 9 5 5 -7 14 -11 20 -7 7 5 9 1 5 -11 -5 -16 -4 -16 10 1
15 18 16 18 16 2 0 -9 4 -14 10 -11 18 11 50 14 55 4 10 -15 28 -10 21 7 -3 8
-2 12 4 9 6 -3 10 -1 10 4 0 6 -6 11 -12 11 -8 0 -9 3 -3 8 12 8 19 55 7 48
-4 -2 -7 13 -7 34 0 21 3 36 7 34 5 -3 8 0 8 5 0 6 -4 11 -9 11 -11 0 -8 61 3
78 3 6 2 13 -4 17 -6 4 -7 11 -4 17 5 7 1 9 -9 5 -9 -3 -19 -2 -22 3 -4 6 -14
5 -25 -2 -10 -7 -16 -16 -13 -21 3 -4 -1 -8 -8 -6 -25 3 -40 -1 -35 -9 3 -5
-8 -8 -24 -7 -30 2 -41 -9 -17 -18 6 -3 2 -4 -10 -4 -12 1 -20 4 -18 7 2 4 -2
7 -10 7 -8 0 -13 -5 -12 -10 1 -5 -8 -10 -20 -12 -13 -1 -23 2 -23 7 0 4 -5 8
-11 8 -5 0 -8 -4 -5 -9 7 -10 -20 -9 -30 2 -4 4 -18 7 -31 7 -16 0 -22 4 -17
12 5 7 0 9 -14 6 -16 -4 -19 -2 -15 10 5 12 2 14 -11 9 -15 -6 -17 -3 -13 13
3 10 2 19 -2 18 -22 -2 -32 4 -27 17 3 8 1 15 -5 15 -6 0 -7 9 -3 22 6 20 5
21 -9 10 -13 -11 -14 -9 -7 22 4 20 4 34 0 31 -5 -3 -11 -1 -14 4 -4 5 2 12
11 14 15 4 15 5 -2 6 -17 1 -18 3 -5 11 13 9 13 10 0 10 -13 0 -13 1 0 10 11
7 11 10 2 10 -7 0 -10 5 -7 10 4 6 11 8 16 5 14 -9 11 2 -7 19 -14 15 -13 16
6 16 12 0 18 4 15 10 -4 6 -11 8 -16 5 -5 -3 -6 1 -3 9 3 9 11 13 18 9 6 -3 8
-3 4 2 -4 4 -2 15 5 23 9 13 9 14 0 8 -7 -4 -13 -2 -13 3 0 6 7 11 16 11 8 0
12 4 9 10 -3 5 1 20 9 32 9 12 16 18 16 12 0 -5 -6 -16 -12 -24 -7 -8 -3 -6 9
4 13 10 20 24 16 30 -4 6 1 5 10 -2 14 -12 16 -11 12 6 -3 15 1 18 20 15 12
-3 26 1 30 8 6 8 4 10 -5 4 -9 -6 -11 -4 -5 4 5 9 10 10 18 2 13 -13 30 -15
23 -2 -8 13 19 8 36 -6 9 -8 19 -9 28 -3 11 7 17 4 22 -8 6 -16 7 -16 7 1 1
15 3 16 15 5 8 -7 12 -17 9 -21 -3 -5 5 -4 17 3 18 10 21 9 15 -1 -6 -9 -3
-11 8 -6 9 3 20 0 24 -8 8 -13 12 -15 34 -15 5 0 7 -4 4 -10 -3 -5 -2 -10 4
-10 5 0 12 6 14 13 4 10 6 9 6 0 1 -7 6 -13 12 -13 6 0 8 7 5 16 -5 13 -3 14
6 6 10 -8 13 -4 14 14 1 13 -1 22 -5 20 -4 -3 -7 8 -6 24 0 15 3 26 7 23 5 -2
8 1 8 6 0 6 -6 11 -12 11 -9 0 -8 4 2 10 12 8 12 10 1 10 -11 0 -11 3 0 17 11
13 11 17 2 20 -7 3 -13 9 -13 14 0 6 5 7 11 3 7 -4 7 1 -1 16 -8 15 -8 20 -1
16 6 -4 11 -2 11 3 0 6 -6 11 -12 11 -9 0 -8 4 2 10 13 8 13 10 0 10 -11 0
-11 3 -2 12 14 14 16 32 4 24 -5 -3 -9 1 -9 9 0 8 3 15 7 15 4 0 7 7 7 15 0
10 -6 14 -15 10 -9 -3 -12 0 -9 9 5 11 0 13 -24 6 -20 -6 -29 -5 -29 3 0 7 -4
6 -10 -3 -9 -13 -10 -13 -11 0 0 10 -3 8 -9 -5 -8 -18 -9 -18 -10 5 -2 18 -4
20 -7 7 -4 -14 -8 -16 -19 -6 -8 6 -14 7 -14 2 0 -5 -21 -7 -50 -3 -38 5 -50
3 -50 -7 0 -7 -5 -13 -11 -13 -5 0 -8 4 -5 8 2 4 1 14 -5 22 -7 12 -9 11 -10
-5 0 -11 -3 -15 -5 -9 -6 14 -44 6 -44 -8 0 -7 -5 -6 -13 1 -8 6 -17 8 -20 5
-4 -4 -4 3 -2 16 3 18 2 20 -10 10 -12 -10 -15 -9 -15 6 0 16 -2 17 -10 4 -8
-12 -10 -11 -10 6 0 12 -7 27 -15 34 -9 7 -14 19 -11 25 2 7 0 17 -6 23 -6 6
-4 20 6 41 9 17 16 32 15 33 -1 2 8 22 20 46 14 28 26 40 34 35 8 -5 8 -2 -1
9 -10 12 -10 17 -1 20 8 3 6 9 -5 21 -16 16 -16 17 4 17 12 0 18 4 15 10 -4 6
-10 8 -14 5 -5 -2 -6 7 -3 22 4 20 2 24 -9 18 -12 -8 -12 -6 0 8 9 12 10 17 2
17 -7 0 -9 5 -5 13 6 9 4 9 -8 -1 -14 -11 -17 -10 -23 7 -3 12 -11 21 -16 21
-6 0 -7 -4 -4 -10 10 -16 -5 -12 -23 6 -15 15 -16 15 -23 -2 -7 -18 -8 -18 -9
1 -1 11 -4 14 -7 8 -3 -9 -10 -10 -24 -3 -14 8 -19 7 -20 -2 0 -7 -4 -4 -9 7
-7 16 -9 17 -9 3z m137 -423 c-3 -3 -9 2 -12 12 -6 14 -5 15 5 6 7 -7 10 -15
7 -18z m212 -319 c0 -3 -4 -8 -10 -11 -5 -3 -10 -1 -10 4 0 6 5 11 10 11 6 0
10 -2 10 -4z"/>
<path d="M1595 1461 c-3 -5 -1 -12 5 -16 5 -3 10 1 10 9 0 18 -6 21 -15 7z"/>
<path d="M2019 1073 c-12 -16 -12 -17 2 -6 9 7 20 9 24 5 5 -4 5 -1 1 6 -9 16
-11 15 -27 -5z"/>
<path d="M2276 1078 c3 -5 10 -6 15 -3 13 9 11 12 -6 12 -8 0 -12 -4 -9 -9z"/>
<path d="M910 1030 c0 -5 5 -10 11 -10 5 0 7 5 4 10 -3 6 -8 10 -11 10 -2 0
-4 -4 -4 -10z"/>
<path d="M1464 1018 c-5 -7 -2 -8 7 -3 12 7 12 6 0 -6 -11 -11 -14 -11 -18 -1
-4 10 -8 10 -19 1 -10 -8 -14 -8 -14 0 0 15 -60 7 -70 -9 -11 -18 -2 -32 13
-24 7 3 5 0 -3 -8 -9 -7 -15 -22 -14 -33 1 -11 3 -36 5 -55 1 -19 6 -40 11
-47 6 -7 3 -15 -9 -22 -10 -6 -13 -11 -7 -11 6 0 10 -18 10 -39 0 -34 -2 -37
-13 -23 -10 14 -10 11 -1 -15 7 -17 16 -29 22 -26 5 4 6 1 2 -6 -5 -7 -14 -10
-20 -8 -7 3 -13 -1 -13 -9 0 -9 6 -13 16 -9 9 3 3 -5 -12 -19 -19 -16 -24 -26
-15 -29 8 -3 6 -6 -5 -6 -10 -1 -16 -5 -13 -9 3 -4 -9 -7 -25 -6 -21 1 -29 -2
-26 -10 4 -9 -2 -11 -19 -8 -13 2 -24 9 -24 14 0 6 -8 4 -17 -3 -11 -10 -14
-10 -9 -1 5 8 0 12 -13 12 -12 0 -21 5 -21 10 0 6 -7 10 -16 10 -8 0 -12 5 -9
10 3 6 2 10 -4 10 -5 0 -12 -6 -14 -12 -4 -10 -6 -10 -6 0 -1 6 -10 12 -21 12
-11 0 -20 5 -20 11 0 5 -5 7 -11 4 -5 -4 -19 1 -29 10 -18 16 -18 16 -13 -7 3
-17 2 -19 -5 -9 -7 10 -18 11 -38 6 -16 -5 -32 -8 -36 -7 -4 1 -5 -5 -2 -13 4
-8 1 -15 -6 -15 -6 0 -10 -6 -7 -12 2 -7 -3 -19 -12 -26 -9 -8 -11 -11 -5 -8
6 3 11 -1 11 -8 0 -8 -8 -12 -21 -9 -17 4 -18 3 -6 -6 8 -6 12 -11 8 -11 -4 0
-3 -11 2 -24 7 -18 5 -26 -6 -30 -13 -5 -13 -9 2 -31 9 -14 13 -25 9 -25 -4 0
-1 -8 6 -17 8 -9 9 -14 2 -10 -7 5 -10 1 -9 -10 2 -10 7 -18 12 -18 5 0 18 -6
29 -14 l20 -13 -20 6 c-19 6 -19 5 -2 -8 11 -8 26 -12 35 -9 10 4 13 2 8 -5
-4 -7 -3 -12 3 -12 5 0 12 4 15 8 3 5 27 8 55 7 27 -1 49 1 49 4 -2 25 4 33
23 28 12 -3 22 0 26 9 3 8 9 11 14 8 5 -3 9 1 9 8 0 9 3 9 10 -2 9 -14 11 -13
14 9 0 5 5 13 10 18 5 4 6 3 3 -3 -4 -7 6 -12 26 -13 18 -2 40 -3 49 -4 9 -1
14 -5 12 -9 -3 -4 5 -8 17 -8 12 0 19 -3 16 -7 -4 -3 1 -15 10 -26 10 -11 13
-17 6 -14 -12 7 -11 -6 2 -36 4 -10 5 -21 1 -24 -3 -3 -1 -12 5 -20 7 -8 7
-13 2 -13 -11 0 -9 -42 3 -61 4 -8 3 -9 -4 -5 -7 4 -12 2 -12 -3 0 -6 6 -11
13 -11 8 0 7 -4 -3 -10 -14 -9 -7 -14 15 -11 6 1 1 -6 -10 -14 -17 -14 -18
-17 -5 -25 13 -8 13 -10 1 -10 -11 0 -10 -4 5 -16 10 -8 13 -13 7 -9 -9 4 -13
-2 -13 -19 0 -19 5 -26 20 -26 11 0 20 5 20 11 0 7 5 8 13 3 14 -11 34 -10 61
1 13 6 21 4 24 -4 3 -8 8 -7 17 5 11 16 50 31 41 15 -3 -4 4 -7 14 -7 14 0 16
4 9 12 -11 14 7 14 29 1 7 -5 14 -2 18 7 3 9 10 13 15 10 5 -3 9 -1 9 5 0 6 6
8 14 5 8 -3 17 -1 21 5 3 6 17 11 30 11 13 0 27 4 30 10 4 6 -1 7 -12 4 -15
-5 -15 -4 -3 4 8 6 18 8 22 6 12 -8 48 6 48 18 0 7 -5 6 -14 -1 -11 -9 -16 -9
-22 0 -4 7 -3 9 4 5 6 -3 13 -2 17 4 4 7 14 6 28 -2 21 -11 21 -10 7 7 -8 10
-10 16 -4 12 14 -8 67 17 57 26 -3 4 1 7 10 7 10 0 17 6 17 13 0 9 2 9 9 -1 6
-10 10 -8 14 8 4 15 11 21 21 17 10 -4 13 -1 9 9 -4 10 0 12 11 8 12 -5 15 -2
10 10 -4 9 -3 16 2 15 21 -4 34 2 31 13 -1 7 5 12 13 13 8 0 14 8 14 17 -1 11
5 15 17 13 12 -3 16 1 12 11 -3 9 1 14 12 14 9 0 14 4 11 9 -3 5 2 15 11 22
15 12 16 12 10 -4 -4 -11 -3 -16 3 -12 6 3 10 11 10 17 0 7 10 23 23 36 12 14
16 22 8 17 -9 -5 -12 -3 -9 6 3 8 9 14 14 14 17 0 33 16 28 28 -2 7 3 21 12
32 8 11 12 14 8 6 -4 -9 -3 -12 3 -8 6 4 9 18 8 32 -2 14 1 23 5 20 5 -3 14 4
20 16 10 17 9 20 -2 14 -7 -3 -5 0 5 8 14 11 15 16 5 20 -9 4 -7 6 4 6 9 1 20
6 24 13 4 6 3 8 -4 5 -7 -5 -6 1 1 17 7 13 16 22 20 19 5 -3 4 5 -3 17 -10 18
-9 21 1 15 9 -6 11 -3 6 8 -4 10 0 20 11 26 9 6 12 11 5 11 -14 0 -10 33 5 38
7 2 9 8 6 14 -4 6 0 14 7 19 12 7 12 9 0 9 -10 0 -11 3 -2 14 7 9 11 41 9 82
-3 64 -4 67 -30 70 -21 2 -26 -1 -22 -14 5 -15 4 -15 -6 1 -9 13 -15 15 -31 7
-18 -10 -24 -6 -19 15 1 5 -7 2 -17 -7 -14 -13 -22 -14 -37 -6 -14 8 -17 7
-12 -1 4 -6 2 -11 -3 -11 -6 0 -11 5 -11 11 0 8 -4 8 -14 0 -10 -9 -16 -9 -21
-1 -5 8 -11 8 -19 1 -7 -6 -17 -7 -21 -3 -5 4 -5 -1 -2 -10 4 -13 1 -18 -11
-18 -15 -1 -15 -2 2 -15 14 -10 15 -15 6 -15 -9 0 -6 -6 8 -16 19 -13 21 -18
10 -32 -11 -14 -10 -15 6 -9 14 6 17 4 12 -8 -3 -8 -1 -15 4 -15 6 0 9 -3 9
-7 -4 -23 2 -54 9 -49 4 2 8 -6 8 -19 0 -13 -4 -21 -8 -19 -4 3 -8 0 -8 -5 0
-6 5 -11 11 -11 8 0 8 -4 0 -14 -10 -11 -10 -20 0 -38 12 -22 11 -22 -6 -8
-17 14 -18 14 -6 -7 11 -21 8 -27 -12 -24 -4 0 -6 -2 -6 -6 4 -22 -2 -43 -12
-43 -5 0 -7 5 -3 12 5 7 3 8 -5 4 -7 -5 -10 -10 -7 -13 3 -3 1 -14 -5 -25 -8
-15 -13 -17 -25 -8 -11 10 -15 9 -20 -3 -3 -9 -12 -18 -20 -21 -8 -3 -13 -2
-10 2 3 5 -1 9 -8 9 -8 0 -12 -5 -10 -11 2 -6 -9 -11 -26 -12 -21 -1 -30 4
-31 15 0 12 -3 11 -9 -4 -6 -13 -9 -15 -9 -5 -1 9 -4 11 -9 5 -10 -15 -92 -13
-92 3 0 6 -5 12 -11 12 -5 0 -8 -4 -5 -9 4 -5 -1 -8 -10 -7 -8 1 -20 9 -25 17
-7 11 -9 11 -9 1 0 -7 -5 -10 -11 -7 -6 4 -8 13 -5 21 3 9 0 11 -11 7 -10 -4
-14 -2 -10 4 4 6 -9 25 -28 41 -28 25 -31 32 -17 35 16 4 15 5 -1 6 -13 1 -16
7 -13 27 4 21 2 23 -9 14 -11 -9 -12 -7 -8 9 3 12 10 18 17 14 6 -3 8 -3 4 2
-4 4 -3 14 3 21 7 8 6 14 -2 20 -7 4 -9 3 -6 -3 3 -5 -1 -10 -10 -10 -12 0
-11 5 7 19 12 10 17 18 11 18 -6 0 -11 5 -11 11 0 5 5 7 10 4 9 -5 15 24 11
49 -1 5 6 3 15 -5 16 -13 16 -12 6 7 -9 18 -7 25 15 44 26 22 26 24 7 31 -19
7 -19 8 1 9 11 1 14 4 8 7 -7 2 -13 12 -13 20 0 10 -6 13 -16 9 -8 -3 -13 -2
-10 2 3 5 -1 9 -9 9 -8 0 -12 -4 -10 -8 3 -4 -6 -6 -20 -5 -14 0 -25 5 -25 10
0 5 -6 3 -14 -3 -11 -9 -15 -9 -19 1 -3 7 -6 4 -6 -7 -1 -16 -3 -17 -10 -5 -6
8 -7 19 -3 25 3 5 -2 4 -11 -3 -9 -8 -21 -11 -27 -7 -5 3 -10 -2 -11 -12 0
-14 -2 -14 -9 5 -11 25 -16 27 -26 10z m219 -411 c-4 -7 -8 -6 -11 3 -3 8 -10
22 -16 30 -6 8 -1 7 11 -4 13 -10 20 -23 16 -29z m428 -190 c-10 -9 -11 -8 -5
6 3 10 9 15 12 12 3 -3 0 -11 -7 -18z"/>
<path d="M1335 781 c-3 -5 -2 -12 3 -15 5 -3 9 1 9 9 0 17 -3 19 -12 6z"/>
<path d="M1705 780 c-3 -6 1 -7 9 -4 18 7 21 14 7 14 -6 0 -13 -4 -16 -10z"/>
<path d="M1263 225 c0 -8 4 -12 9 -9 5 3 6 10 3 15 -9 13 -12 11 -12 -6z"/>
<path d="M686 215 c10 -8 23 -15 28 -15 6 0 1 7 -10 15 -10 8 -23 15 -28 15
-6 0 -1 -7 10 -15z"/>
</g>
</svg>
